<?xml version="1.0" encoding="UTF-8"?>
<svg id="Laag_2" data-name="Laag 2" xmlns="http://www.w3.org/2000/svg" viewBox="0 0 1077.03 432.62">
  <defs>
    <style>
      .cls-1 {
        fill: none;
        stroke: #000;
        stroke-linecap: round;
        stroke-linejoin: round;
        stroke-width: 15px;
      }
    </style>
  </defs>
  <g id="Laag_1-2" data-name="Laag 1">
    <path class="cls-1" d="M306.64,7.5c-10.85,0-267.07,0-277.35,0M12.33,43.75c7,8.34,306.26,364.94,313.45,373.51M342.66,425.12c10.85,0,263.02,0,273.31,0M638.06,403.1c0-9.51,0-56.48,0-66.21M615.97,314.88c-7.04,0-33.69,0-40.92,0M558.16,278.63c6.17-7.36,112.28-133.8,118.1-140.74M710.02,137.89c5.82,6.93,112,133.38,118.18,140.74M811.24,314.88c-7.23,0-33.88,0-40.92,0M748.3,336.9c0,9.51,0,56.48,0,66.21M770.32,425.12c10.85,0,267.14,0,277.43,0M1064.63,388.87c-7.18-8.56-306.45-365.17-313.45-373.51M734.3,7.5c-10.85,0-263.02,0-273.31,0M438.97,29.52c0,9.72,0,56.69,0,66.21M460.99,117.74c7.21,0,33.9,0,40.92,0M518.8,153.99c-6.17,7.36-112.28,133.8-118.1,140.74M366.93,294.73c-6.17-7.36-112.28-133.8-118.1-140.74M265.72,117.74c7.02,0,33.72,0,40.92,0M328.66,95.72c0-9.72,0-56.69,0-66.21M638.06,336.9c-.27-11.78-10.26-21.95-22.09-22.02M575.04,314.88c-18.05-.19-28.58-22.21-16.88-36.25M676.26,137.89c8.57-10.16,25.16-10.23,33.76,0M828.2,278.63c11.46,13.91,1.29,36.11-16.96,36.25M770.32,314.88c-11.76.1-21.84,10.28-22.02,22.02M748.3,403.1c.18,11.74,10.26,21.91,22.02,22.02M1047.75,425.12c18.31-.17,28.41-22.34,16.88-36.25M751.18,15.36c-4.15-4.91-10.47-7.74-16.88-7.86M460.99,7.5c-11.75.12-21.9,10.27-22.02,22.02M438.97,95.72c.12,11.75,10.27,21.9,22.02,22.02M501.91,117.74c18.05.09,28.61,22.28,16.88,36.25M400.7,294.73c-8.61,10.22-25.2,10.16-33.76,0M248.84,153.99c-11.69-14.04-1.17-36.09,16.88-36.25M306.64,117.74c11.76-.13,21.93-10.25,22.02-22.02M328.66,29.52c-.09-11.77-10.26-21.89-22.02-22.02M29.29,7.5C10.97,7.61.93,29.8,12.33,43.75M325.78,417.26c4.18,4.88,10.47,7.74,16.88,7.86M615.97,425.12c11.83-.07,21.83-10.24,22.09-22.02"/>
  </g>
</svg>