<svg version="1.1" viewBox="0.0 0.0 960.0 540.0" fill="none" stroke="none" stroke-linecap="square" stroke-miterlimit="10" xmlns:xlink="http://www.w3.org/1999/xlink" xmlns="http://www.w3.org/2000/svg"><clipPath id="g2ffaa5cf941_0_36.0"><path d="m0 0l960.0 0l0 540.0l-960.0 0l0 -540.0z" clip-rule="nonzero"/></clipPath><g clip-path="url(#g2ffaa5cf941_0_36.0)"><path fill="#000000" fill-opacity="0.0" d="m0 0l960.0 0l0 540.0l-960.0 0z" fill-rule="evenodd"/><path fill="#000000" fill-opacity="0.0" d="m295.4882 143.60892l57.89502 -0.7506561l78.94751 154.88713l79.69815 -154.88713l31.580078 0.7506561l131.58002 253.38321l-34.58789 -0.7506714l-80.45148 -156.39107l-78.94751 156.39107l-60.900238 0z" fill-rule="evenodd"/><path stroke="#595959" stroke-width="4.0" stroke-linejoin="round" stroke-linecap="butt" d="m295.4882 143.60892l57.89502 -0.7506561l78.94751 154.88713l79.69815 -154.88713l31.580078 0.7506561l131.58002 253.38321l-34.58789 -0.7506714l-80.45148 -156.39107l-78.94751 156.39107l-60.900238 0z" fill-rule="evenodd"/><path fill="#000000" fill-opacity="0.0" d="m432.32022 297.85828l-31.212616 59.748016" fill-rule="evenodd"/><path stroke="#595959" stroke-width="4.0" stroke-linejoin="round" stroke-linecap="butt" d="m432.32022 297.85828l-31.212616 59.748016" fill-rule="evenodd"/><path fill="#000000" fill-opacity="0.0" d="m544.3622 145.11285l-124.12598 251.55905" fill-rule="evenodd"/><path stroke="#595959" stroke-width="4.0" stroke-linejoin="round" stroke-linecap="butt" d="m544.3622 145.11285l-124.12598 251.55905" fill-rule="evenodd"/><path fill="#000000" fill-opacity="0.0" d="m560.41705 240.4566l-32.06299 -62.834656" fill-rule="evenodd"/><path stroke="#595959" stroke-width="4.0" stroke-linejoin="round" stroke-linecap="butt" d="m560.41705 240.4566l-32.06299 -62.834656" fill-rule="evenodd"/></g></svg>